<svg xmlns="http://www.w3.org/2000/svg" width="32" height="32" viewBox="0 0 32 32"><path d="m 16,4.21875 c -4.547378,0 -8.25,3.7026 -8.25,8.25 0,2.265479 0.9299378,4.316741 2.408203,5.804688 0.01903,0.03458 0.03019,0.06432 0.08984,0.121093 l 2.820312,3.167969 c -1.26664,0.190394 -2.365174,0.491854 -3.2128902,0.892578 -0.5280191,0.2496 -0.9635651,0.534153 -1.2890626,0.876953 -0.3254973,0.3428 -0.5446184,0.766816 -0.5449218,1.228516 0,0.5617 0.3159166,1.0537 0.7636718,1.4375 0.4477554,0.3838 1.0449705,0.695178 1.7617188,0.955078 1.433497,0.5198 3.35313,0.826072 5.472656,0.826172 2.119527,-10e-5 4.039159,-0.306372 5.472657,-0.826172 0.716747,-0.2599 1.313963,-0.571278 1.761718,-0.955078 0.447756,-0.3838 0.763672,-0.8758 0.763672,-1.4375 -0.0012,-0.4603 -0.220385,-0.882609 -0.544922,-1.224609 -0.324536,-0.3419 -0.759049,-0.625701 -1.285156,-0.875 -0.84533,-0.400406 -1.941797,-0.701725 -3.205078,-0.892579 L 22.25,17.863281 c 0.06077,-0.06905 0.101325,-0.15353 0.117188,-0.24414 C 23.50918,16.206741 24.25,14.431503 24.25,12.470703 24.25,7.9933031 20.648554,4.3711656 16.197266,4.2597656 16.134975,4.2328508 16.067857,4.2188957 16,4.21875 Z m -0.0078,1.0019531 0.0078,0 c 4.005935,0 7.25,3.2442 7.25,7.2499999 0,1.8089 -0.684998,3.461775 -1.785156,4.734375 -0.03106,0.0365 -0.05672,0.07729 -0.07617,0.121094 l -3.759766,4.263672 c -0.0074,0.0076 -0.01457,0.0154 -0.02148,0.02344 l -0.07813,0.08984 c -0.01035,0.0119 -0.02012,0.02428 -0.0293,0.03711 -0.0054,0.0077 -0.01064,0.01548 -0.01563,0.02344 -0.01253,0.02002 -0.02362,0.04091 -0.0332,0.0625 l -0.002,0.0039 -0.0039,0.0078 c -0.0051,0.01283 -0.0097,0.02586 -0.01367,0.03906 -0.0052,0.01411 -0.0098,0.02845 -0.01367,0.04297 l 0,0.0039 c -0.0033,0.01549 -0.006,0.03113 -0.0078,0.04687 l 0,0.002 c -0.002,0.01555 0.168575,-0.339894 0.167975,-0.324224 l -0.171875,0.22461 -1.386719,1.546875 -1.363281,-1.544922 -0.08203,-0.01172 c 1.45e-4,-0.0163 0.08152,0.135379 0.08003,0.119139 -0.0017,-0.01705 -0.0043,-0.034 -0.0078,-0.05078 -0.0031,-0.01581 -0.0071,-0.03145 -0.01172,-0.04687 l 0,-0.002 c -0.0051,-0.01525 -0.011,-0.03024 -0.01758,-0.04492 l 0,-0.002 c -0.0065,-0.01466 -0.01364,-0.029 -0.02149,-0.04297 l 0,-0.002 c -0.0078,-0.01407 -0.01627,-0.02776 -0.02539,-0.04102 l 0,-0.002 c -0.0098,-0.01353 -0.02019,-0.02657 -0.03125,-0.03906 l -0.0059,-0.0078 -0.08203,-0.09375 c -0.01054,-0.01158 -0.02162,-0.02266 -0.0332,-0.0332 l -0.002,-0.002 -3.449219,-3.873047 -0.0039,0 c -0.01797,-0.032 -0.02442,-0.05803 -0.07813,-0.111328 C 9.5717002,16.274891 8.75,14.473756 8.75,12.472656 8.75,8.4694562 11.990108,5.2292094 15.992188,5.2246094 Z M 16,8.9375 c -1.942543,0 -3.53125,1.58865 -3.53125,3.53125 C 12.46875,14.41125 14.057437,16 16,16 c 1.942563,0 3.53125,-1.58875 3.53125,-3.53125 0,-1.9426 -1.588707,-3.53125 -3.53125,-3.53125 z m 0,1 c 1.400097,0 2.53125,1.13115 2.53125,2.53125 C 18.53125,13.86875 17.400077,15 16,15 14.599923,15 13.46875,13.86875 13.46875,12.46875 13.46875,11.06865 14.599903,9.9375 16,9.9375 Z m -2.128906,12.558594 1.753906,1.990234 0,0.002 c 0.01113,0.01229 0.02286,0.02403 0.03516,0.03516 0.01186,0.01101 0.02424,0.02144 0.03711,0.03125 l 0.002,0 c 0.0051,0.004 0.01034,0.0079 0.01563,0.01172 0.02166,0.01547 0.04452,0.02918 0.06836,0.04102 0.03007,0.01416 0.06147,0.02528 0.09375,0.0332 0.0161,0.0041 0.0324,0.0073 0.04883,0.0098 l 0.002,0 c 0.02392,0.0037 0.04807,0.0057 0.07227,0.0059 l 0.03125,0 c 0.03345,8.4e-5 0.06682,-0.0032 0.09961,-0.0098 0.0328,-0.0065 0.06486,-0.01636 0.0957,-0.0293 0.01532,-0.0064 0.03031,-0.01358 0.04492,-0.02148 0.02916,-0.0161 0.05664,-0.03507 0.08203,-0.05664 0.01296,-0.01108 0.02535,-0.02281 0.03711,-0.03516 0.0046,-0.0045 0.0092,-0.009 0.01367,-0.01367 L 18.185547,22.5 c 1.453574,0.1687 2.735207,0.467834 3.574219,0.865234 0.448849,0.2127 0.784952,0.445857 0.988281,0.660157 0.203329,0.2142 0.269122,0.386362 0.269531,0.539062 -4.34e-4,0.1888 -0.10363,0.409681 -0.414062,0.675781 -0.311086,0.2667 -0.812996,0.543291 -1.453125,0.775391 -1.280258,0.4642 -3.109311,0.765525 -5.13086,0.765625 -2.021548,-10e-5 -3.850601,-0.301425 -5.130859,-0.765625 C 10.248543,25.783525 9.7466323,25.506934 9.4355469,25.240234 9.1244614,24.973634 9.0214844,24.7516 9.0214844,24.5625 c 1.006e-4,-0.1531 0.065547,-0.324163 0.2695312,-0.539062 0.2039842,-0.2148 0.5415094,-0.44901 0.9921874,-0.66211 0.842277,-0.39812 2.129289,-0.697391 3.587891,-0.865234 z" color="#000" font-family="sans-serif" font-weight="400" overflow="visible" style="line-height:normal;text-indent:0;text-align:start;text-decoration-line:none;text-decoration-style:solid;text-decoration-color:#000;text-transform:none;block-progression:tb;isolation:auto;mix-blend-mode:normal"/></svg>